<svg xmlns="http://www.w3.org/2000/svg" width="228" height="34" viewBox="0 0 227.64 33.48"><path d="M0 .6h13.1c4.75 0 7.77 1.18 9.65 3.06A8.42 8.42 0 0125.2 10v.08a8.67 8.67 0 01-5.29 8.19l6.25 9.11H15.93l-5-7.65H9v7.67H0zm12.83 12.75c2.14 0 3.45-1 3.45-2.6v-.08c0-1.72-1.34-2.57-3.41-2.57H9v5.25zM64.57.41h8.88l11.3 27H75l-1.41-3.6h-9.37l-1.38 3.6h-9.57zm6.81 17l-2.45-6.51-2.45 6.51zM86.54.6H96.8c10.65 0 16 5.24 16 13.17v.08c0 7.93-5.44 13.55-16.28 13.55h-9.98zM97 19.59c4.1 0 6.74-1.68 6.74-5.55V14c0-3.86-2.64-5.55-6.74-5.55h-1.5v11.14zM115.38.6h22.44v7.66h-13.48v3.41h12.53v7h-12.53v8.73h-9zm86.02 0h10.27c10.64 0 16 5.24 16 13.17v.08c0 7.93-5.44 13.55-16.28 13.55h-10zm10.46 19c4.1 0 6.74-1.68 6.74-5.55V14c0-3.86-2.64-5.55-6.74-5.55h-1.5v11.14zM154.09 0a14 14 0 1014 14 14 14 0 00-14-14zm0 20a6 6 0 116-6 6 6 0 01-6 6zm30.63-20a14 14 0 1014 14 14 14 0 00-14-14zm0 20a6 6 0 116-6 6 6 0 01-6 6z" fill="#002b49"/><path d="M54.86 14a14 14 0 00-.76-4.56 2 2 0 01-2.77-1.62 3.77 3.77 0 01-1.22.23 3.62 3.62 0 01-3.67-3.56 3.82 3.82 0 01.2-1.23 2 2 0 01-1.83-2 2.14 2.14 0 01.11-.66 14.22 14.22 0 00-4.05-.6 14 14 0 00-5.31 26.93l4.9 6.38a.55.55 0 00.77 0L46.11 27a14 14 0 008.75-13zm-14 6a6 6 0 116-6 6 6 0 01-5.99 6z" fill="#ff671d"/></svg>