<?xml version="1.0" encoding="UTF-8" standalone="no"?>
<svg
   xmlns:dc="http://purl.org/dc/elements/1.1/"
   xmlns:cc="http://creativecommons.org/ns#"
   xmlns:rdf="http://www.w3.org/1999/02/22-rdf-syntax-ns#"
   xmlns:svg="http://www.w3.org/2000/svg"
   xmlns="http://www.w3.org/2000/svg"
   xmlns:sodipodi="http://sodipodi.sourceforge.net/DTD/sodipodi-0.dtd"
   xmlns:inkscape="http://www.inkscape.org/namespaces/inkscape"
   width="1000"
   height="130.82997"
   viewBox="0 0 1000 130.82997"
   version="1.1"
   id="svg24"
   sodipodi:docname="logo.svg"
   style="fill:none"
   inkscape:version="0.92.4 (5da689c313, 2019-01-14)">
  <metadata
     id="metadata30">
    <rdf:RDF>
      <cc:Work
         rdf:about="">
        <dc:format>image/svg+xml</dc:format>
        <dc:type
           rdf:resource="http://purl.org/dc/dcmitype/StillImage" />
        <dc:title></dc:title>
      </cc:Work>
    </rdf:RDF>
  </metadata>
  <defs
     id="defs28" />
  <sodipodi:namedview
     pagecolor="#ffffff"
     bordercolor="#111111"
     borderopacity="1"
     objecttolerance="10"
     gridtolerance="10"
     guidetolerance="10"
     inkscape:pageopacity="0"
     inkscape:pageshadow="2"
     inkscape:window-width="1920"
     inkscape:window-height="1017"
     id="namedview26"
     showgrid="false"
     fit-margin-top="0"
     fit-margin-left="0"
     fit-margin-right="0"
     fit-margin-bottom="0"
     inkscape:zoom="0.37750378"
     inkscape:cx="616.57962"
     inkscape:cy="-377.0696"
     inkscape:window-x="1912"
     inkscape:window-y="-8"
     inkscape:window-maximized="1"
     inkscape:current-layer="svg24" />
  <path
     id="path53"
     d="m 159.10516,20.842492 15.27088,-8.75421 -3.12711,11.39247 c -0.36045,1.31913 1.08273,2.5183 2.28514,1.79869 l 26.57549,-15.2299 c 1.44316,-0.8394403 2.16406,-2.6381203 1.44316,-4.0772103 -0.84195,-1.67887 -2.88634,-2.39848 -4.44919,-1.43909 l -15.39196,8.8741703 3.12571,-11.3924703 c 0.36044,-1.31913002 -1.08133,-2.51830002 -2.28374,-1.79883002 L 155.85838,15.565982 c -1.56426,0.95939 -2.04438,2.99799 -0.96306,4.5569 0.96306,1.19931 2.88635,1.55905 4.20984,0.71961 z m -24.16011,73.274289 c -12.62599,2.278381 -25.85319,-11.992123 -29.34046,-31.778929 -3.48713,-19.66699 3.96823,-37.53515 16.71447,-39.81368 12.62599,-2.27838 25.85319,11.99213 29.34074,31.77894 3.48755,19.666983 -4.08875,37.535149 -16.71475,39.813669 z M 35.38194,80.330193 32.255536,80.92985 c -4.689676,0.839436 -8.537665,4.077206 -10.100938,8.394336 -0.721446,2.158564 -2.645439,3.597648 -4.930158,3.837427 -2.645439,0.119962 -4.930114,-1.438945 -5.651619,-3.95725 -0.48099,-1.679005 -0.120246,-2.998139 0.240496,-3.837572 C 13.737282,81.049667 12.895541,76.133028 9.6488397,72.77515 9.047605,72.055677 8.2058645,70.976328 8.0856225,69.297462 c -0.1202463,-2.63826 1.4429752,-4.91665 3.9681905,-5.63626 0.120247,0 0.210436,-0.0299 0.300619,-0.06 0.09025,-0.0299 0.180373,-0.0598 0.300622,-0.0598 2.04418,-0.35988 4.088418,0.35974 5.290967,2.0386 2.88592,3.59766 7.575597,5.396342 12.385516,4.556909 l 3.126403,-0.599519 3.246643,2.278386 -2.284719,3.237915 3.246788,2.278519 z M 145.04233,24.796652 c -7.21544,-7.43509 -15.7531,-10.79282 -24.05014,-9.23391 -8.29719,1.43908 -30.543023,10.19316 -48.941003,20.38646 -14.910722,8.15455 -25.131757,15.94937 -30.903596,23.26449 -0.481107,0.59966 -1.20255,1.07936 -2.044238,1.19932 l -10.34142,1.79882 c -1.803611,0.35974 -3.727607,-0.35987 -4.809918,-1.67901 -3.366885,-4.31712 -9.018488,-6.11581 -14.3094529,-4.5569 -6.0124097,1.79883 -9.98060019,7.43508 -9.61984639,13.67085 0.2404957,3.237919 1.56322959,6.235916 3.84793309,8.514439 0.9619826,0.959395 1.2024789,2.518302 0.7214862,3.717471 -1.9239682,4.077348 -1.5632142,8.994132 0.9619857,12.951382 2.5252119,3.957528 7.2148883,6.235626 11.9046053,5.996276 0.51349,0 0.939262,-0.0873 1.427262,-0.18725 l 0.138137,-0.0296 0.117992,-0.0225 c 4.809916,-0.840554 8.898389,-4.197866 10.461662,-8.994688 0.480958,-1.55891 2.044232,-2.878038 3.968089,-3.117956 l 10.22118,-1.798828 c 0.841682,-0.119808 1.68337,0.359741 1.803608,1.19931 3.607511,15.829422 10.10094,30.339982 18.999189,42.331692 0.481105,0.71948 1.56327,0.83915 2.284717,0.23937 l 13.708305,-10.67243 1.803754,-1.31927 c 3.126404,-2.39778 2.044233,-7.4341 -1.803754,-8.27466 l -5.892085,-1.43895 c -0.841826,-0.23937 -1.683516,-0.83915 -2.044233,-1.55862 -1.443033,-2.8779 -2.886063,-5.99656 -4.088474,-9.113951 -0.480964,-1.199175 0.601204,-2.398344 1.803754,-2.038608 3.171881,0.766779 6.574106,1.380378 10.145572,2.024527 0.896601,0.161586 1.803892,0.325238 2.720904,0.493775 20.802945,3.237487 44.612045,3.956967 52.909095,2.398337 8.29774,-1.438945 15.15175,-7.434938 19.36018,-16.908768 3.96767,-8.874028 5.05041,-20.02673 3.1257,-31.05932 -1.92328,-11.03274 -6.73292,-21.10608 -13.58693,-28.18128 z m -14.91395,42.4608 c -2.16448,0.35973 -5.41112,-3.11796 -6.25295,-8.15456 -0.84168,-5.03674 0.96207,-9.35387 3.12655,-9.71361 2.16447,-0.35973 5.41112,3.11796 6.25281,8.15456 0.96206,4.91678 -0.84169,9.35387 -3.12641,9.71361 z m -4.43976,-25.66693 c -6.97439,1.19917 -11.18297,9.59365 -9.61983,18.94737 1.68351,9.35387 8.41742,15.709608 15.51206,14.510433 6.97439,-1.199171 11.18338,-9.593643 9.61912,-18.947513 -1.68281,-9.35373 -8.53696,-15.70946 -15.51135,-14.51029 z m 69.3635,6.58692 17.43632,-3.11795 c 1.80363,-0.35974 3.60724,0.95939 3.72832,2.99799 0.11965,1.67887 -1.08273,3.11796 -2.76667,3.35774 l -30.1813,5.27652 c -1.32349,0.23992 -2.40622,-1.31913 -1.56425,-2.5183 l 6.85401,-9.71361 -17.31525,2.998 c -1.56286,0.23992 -3.24679,-0.71948 -3.72691,-2.27838 -0.48152,-1.79883 0.72089,-3.59766 2.5245,-3.95739 l 30.30239,-5.27652 c 1.32349,-0.23993 2.40483,1.31913 1.56285,2.5183 z m -1.17847,37.423073 17.43632,3.117959 c 1.9233,0.359736 3.00603,2.158564 2.5245,3.83743 -0.48153,1.679008 -2.04438,2.518441 -3.72832,2.278523 l -30.18129,-5.276516 c -1.3235,-0.239801 -1.80362,-2.038608 -0.60121,-2.878044 l 9.74036,-6.835424 -17.31666,-2.997997 c -1.68252,-0.239924 -2.88494,-1.679008 -2.76526,-3.357874 0.11965,-1.918645 1.9233,-3.237773 3.72691,-2.878034 l 30.3038,5.276516 c 1.32209,0.239801 1.8036,2.038605 0.6012,2.878038 z"
     inkscape:connector-curvature="0"
     style="clip-rule:evenodd;fill:#0066f1;fill-opacity:1;fill-rule:evenodd;stroke-width:1.40797281" />
  <path
     d="m 360.87975,16.821372 h 24.8219 v 99.438108 h -23.5902 L 342.50005,68.500702 H 341.9313 V 116.25948 H 317.10937 V 16.821372 h 24.82193 l 18.47437,46.77889 h 0.47408 z"
     id="path2"
     style="fill:#0066f1;fill-opacity:1;stroke-width:4.80765724"
     inkscape:connector-curvature="0" />
  <path
     d="M 393.6588,116.25948 V 16.821372 h 52.67559 v 21.02816 h -25.76953 v 20.93903 h 22.6431 v 20.137066 h -22.6431 v 37.333852 z"
     id="path4"
     style="fill:#0066f1;fill-opacity:1;stroke-width:4.80765724"
     inkscape:connector-curvature="0" />
  <path
     d="m 488.87349,96.567806 h -17.43207 l -3.12643,19.602734 h -25.48492 l 20.74794,-99.349168 h 34.01178 L 518.3377,116.25948 H 492.09509 Z M 474.66252,77.589098 h 11.08454 L 480.3471,44.977702 h -0.47355 z"
     id="path6"
     style="fill:#0066f1;fill-opacity:1;stroke-width:4.80765724"
     inkscape:connector-curvature="0" />
  <path
     d="M 530.93763,116.25948 V 37.849532 h -19.13739 v -21.02816 h 65.56058 v 21.02816 h -19.13785 v 78.409948 z"
     id="path8"
     style="fill:#0066f1;fill-opacity:1;stroke-width:4.80765724"
     inkscape:connector-curvature="0" />
  <path
     d="M 310.85702,37.854242 V 16.826062 H 298.44605 271.25558 256.7603 v 21.02818 h 14.49528 V 95.236083 H 256.7603 v 21.028207 h 14.49528 27.19047 12.41097 V 95.236083 H 298.44605 V 37.854242 Z"
     id="path10"
     style="fill:#0066f1;fill-opacity:1;stroke-width:4.80765724"
     inkscape:connector-curvature="0" />
  <path
     d="M 845.28963,37.849532 V 16.821372 H 832.9724 805.78028 791.19386 v 21.02816 h 14.58642 v 57.381743 h -14.58642 v 21.028205 h 14.58642 27.19212 12.31723 V 95.231275 H 832.9724 V 37.849532 Z"
     id="path12"
     style="fill:#0066f1;fill-opacity:1;stroke-width:4.80765724"
     inkscape:connector-curvature="0" />
  <path
     d="M 623.40421,85.786634 V 16.821372 h 27.3801 v 66.64845 c 0,21.741188 -12.31674,33.947828 -34.48582,33.947828 -21.79017,0 -34.29589,-12.20664 -34.29589,-33.947828 v -66.64845 h 27.38011 v 68.876321 c 0,5.969666 1.42068,10.602805 6.91578,10.602805 5.68461,0 7.10572,-4.633139 7.10572,-10.513864 z"
     id="path14"
     style="fill:#0066f1;fill-opacity:1;stroke-width:4.80765724"
     inkscape:connector-curvature="0" />
  <path
     d="m 696.92386,96.657226 h -17.43207 l -3.1264,19.602254 h -25.48541 l 20.74843,-99.438108 h 34.01175 l 20.74791,99.438108 H 700.14499 Z M 682.71295,77.589098 h 11.08451 l -5.39997,-32.611396 h -0.47355 z"
     id="path16"
     style="fill:#0066f1;fill-opacity:1;stroke-width:4.80765724"
     inkscape:connector-curvature="0" />
  <path
     d="M 739.08847,116.25948 V 37.849532 h -19.23401 v -21.02816 h 65.56059 v 21.02816 h -19.13928 v 78.409948 z"
     id="path18"
     style="fill:#0066f1;fill-opacity:1;stroke-width:4.80765724"
     inkscape:connector-curvature="0" />
  <path
     d="m 925.63037,66.533412 c 0,33.591578 -13.26434,50.877508 -36.66318,50.877508 -23.59118,0 -36.85552,-17.28593 -36.85552,-50.877508 0,-33.50259 13.26434,-50.87757 36.85552,-50.87757 23.39884,0 36.66318,17.37498 36.66318,50.87757 z m -45.37948,0 c 0,21.740702 2.36537,29.581993 8.7163,29.581993 6.34611,0 8.52396,-7.930233 8.52396,-29.581993 0,-21.74109 -2.17785,-29.58209 -8.52396,-29.58209 -6.35093,0 -8.7163,7.841 -8.7163,29.58209 z"
     id="path20"
     style="fill:#0066f1;fill-opacity:1;stroke-width:4.80765724"
     inkscape:connector-curvature="0" />
  <path
     d="M 975.1781,16.821372 H 1000 v 99.438108 h -23.49499 l -19.7066,-47.758778 h -0.5673 V 116.25948 H 931.40915 V 16.821372 h 24.82196 l 18.47101,46.77889 h 0.47598 z"
     id="path22"
     style="fill:#0066f1;fill-opacity:1;stroke-width:4.80765724"
     inkscape:connector-curvature="0" />
</svg>
